<svg width="298" height="368" viewBox="0 0 298 368" fill="none" xmlns="http://www.w3.org/2000/svg">
<path d="M36.3821 69.0153C67.0488 68.2027 100.353 91.0187 105.735 139.549L106.149 144.348L106.164 144.44C109.093 195.331 73.5961 264.914 -3.94452 298.371C-5.66975 299.116 -7.6082 299.2 -9.39182 298.61C-11.1754 298.019 -12.68 296.794 -13.6199 295.167L-30.6399 265.742C-31.1473 264.864 -31.4754 263.893 -31.6051 262.887C-31.7348 261.881 -31.6635 260.859 -31.3953 259.881C-31.1272 258.902 -30.6676 257.987 -30.0431 257.187C-29.4185 256.388 -28.6416 255.72 -27.7572 255.223C-1.53719 240.473 18.9021 217.335 31.1995 189.259C12.9528 186.039 -0.157185 178.48 -8.94319 168.406C-19.1705 156.661 -22.8199 142.339 -22.8199 129.812C-22.8199 95.864 3.29281 68.402 36.3668 69.0153M189.7 69.0153C220.367 68.2027 253.671 91.0187 259.053 139.549L259.467 144.348L259.482 144.44C262.411 195.331 226.914 264.914 149.373 298.371C147.648 299.116 145.71 299.2 143.926 298.61C142.143 298.019 140.638 296.794 139.698 295.167L122.678 265.742C122.171 264.864 121.843 263.893 121.713 262.887C121.583 261.881 121.655 260.859 121.923 259.881C122.191 258.902 122.65 257.987 123.275 257.187C123.899 256.388 124.676 255.72 125.561 255.223C151.781 240.473 172.22 217.335 184.517 189.259C166.271 186.039 153.161 178.48 144.375 168.406C134.147 156.661 130.498 142.339 130.498 129.812C130.498 95.864 156.641 68.402 189.7 69.0153Z" fill="#222222" fill-opacity="0.1"/>
</svg>
